<svg xmlns="http://www.w3.org/2000/svg" xmlns:xlink="http://www.w3.org/1999/xlink" width="678" height="421.613" viewBox="0 0 678 421.613">
  <defs>
    <linearGradient id="linear-gradient" x1="1" y1="0.5" x2="0" y2="0.5" gradientUnits="objectBoundingBox">
      <stop offset="0" stop-color="#6ee2f5"/>
      <stop offset="1" stop-color="#6454f0"/>
    </linearGradient>
    <linearGradient id="linear-gradient-2" x1="1" y1="0.5" x2="0" y2="0.5" gradientUnits="objectBoundingBox">
      <stop offset="0" stop-color="#6ee2f5"/>
      <stop offset="0.201" stop-color="#6ab2f4"/>
      <stop offset="0.325" stop-color="#69a1f3"/>
      <stop offset="0.417" stop-color="#699af3"/>
      <stop offset="1" stop-color="#6454f0"/>
    </linearGradient>
  </defs>
  <g id="Group_18" data-name="Group 18" transform="translate(-3558 -1051.387)">
    <text id="TEXNOLOGIYALARI_KAFEDRASI" data-name="TEXNOLOGIYALARI KAFEDRASI" transform="translate(3897 1465)" fill="#6bbaf3" font-size="30" font-family="Montserrat-Bold, Montserrat" font-weight="700" letter-spacing="0.05em"><tspan x="-256.83" y="0">TEXNOLOGIYALARI KAFEDRASI</tspan></text>
    <g id="Group_3" data-name="Group 3" transform="translate(2727.036 488)">
      <path id="Path_1" data-name="Path 1" d="M1250.615,671.476,1088.98,578.155c-29.558-17.066-58.3-19.268-80.925-6.2s-35.091,39.055-35.091,73.185v82.178c0,34.23,12.472,60.284,35.121,73.36a63.35,63.35,0,0,0,32.062,8.389c15.222,0,31.67-4.859,48.367-14.5L1170,747.52l-34.065-19.667-64.453,37.212c-18.1,10.448-34.995,12.673-46.365,6.11-11.495-6.638-18.089-22.624-18.089-43.86V645.137c0-21.136,6.583-37.059,18.059-43.685s28.557-4.364,46.861,6.2l161.635,93.321a17.032,17.032,0,1,0,17.032-29.5Z" fill="url(#linear-gradient)"/>
      <path id="Path_2" data-name="Path 2" d="M1135.936,727.852l-34.064,19.668,34.064,19.667L1170,747.52Z" fill="#6458f0"/>
      <path id="Path_3" data-name="Path 3" d="M1331.914,571.776c-22.52-13-51.087-10.833-80.43,6.11L1170,624.932l34.064,19.667,64.453-37.213c18.094-10.448,34.993-12.676,46.365-6.109,11.495,6.637,18.09,22.624,18.09,43.86v82.178c0,21.135-6.581,37.058-18.058,43.683s-28.557,4.366-46.862-6.2l-161.636-93.32a17.032,17.032,0,1,0-17.032,29.5L1251.02,794.3c16.839,9.721,33.41,14.62,48.739,14.619a63.577,63.577,0,0,0,32.186-8.418c22.629-13.064,35.092-39.055,35.09-73.183V645.137C1367.034,610.905,1354.563,584.852,1331.914,571.776Z" fill="url(#linear-gradient-2)"/>
      <path id="Path_4" data-name="Path 4" d="M1238.127,624.932l-34.062-19.667L1170,624.932l34.063,19.666Z" fill="#6458f0"/>
    </g>
    <text id="MULTIMEDIA" transform="translate(3897 1407)" fill="#6458f0" font-size="100" font-family="Montserrat-Bold, Montserrat" font-weight="700" letter-spacing="0.02em"><tspan x="-338.85" y="0">MULTIMEDIA</tspan></text>
  </g>
</svg>
